<svg xmlns="http://www.w3.org/2000/svg" viewBox="0 0 800 620" font-family="Inter, Helvetica, sans-serif">
  <rect width="800" height="620" fill="#ffffff" stroke="#2f4b4e" stroke-width="2"/>
  <!-- header -->
  <rect x="20" y="20" width="760" height="60" fill="#2f4b4e"/>
  <text x="40" y="58" fill="#ffffff" font-size="22" font-weight="600">StitchCraft — Products</text>
  <rect x="560" y="38" width="60" height="24" fill="#d8c3a5"/>
  <rect x="630" y="38" width="60" height="24" fill="#d8c3a5"/>
  <rect x="700" y="38" width="60" height="24" fill="#d8c3a5"/>
  <!-- filter bar -->
  <rect x="20" y="100" width="760" height="46" fill="#d8c3a5"/>
  <text x="40" y="128" fill="#2f4b4e" font-size="14" font-weight="600">Filter:</text>
  <rect x="110" y="110" width="90" height="26" fill="#fff" stroke="#999"/>
  <text x="155" y="128" text-anchor="middle" fill="#555" font-size="12">All</text>
  <rect x="210" y="110" width="90" height="26" fill="#fff" stroke="#999"/>
  <text x="255" y="128" text-anchor="middle" fill="#555" font-size="12">Scrubs</text>
  <rect x="310" y="110" width="90" height="26" fill="#fff" stroke="#999"/>
  <text x="355" y="128" text-anchor="middle" fill="#555" font-size="12">Jackets</text>
  <rect x="620" y="110" width="140" height="26" fill="#fff" stroke="#999"/>
  <text x="690" y="128" text-anchor="middle" fill="#777" font-size="12">Sort by price ▾</text>
  <!-- product grid rendered from JS array -->
  <text x="40" y="176" fill="#2f4b4e" font-size="14" font-weight="600">Product grid built by JS from data array</text>
  <g fill="#f4f1ea" stroke="#999">
    <rect x="20" y="190" width="180" height="190"/>
    <rect x="215" y="190" width="180" height="190"/>
    <rect x="410" y="190" width="180" height="190"/>
    <rect x="605" y="190" width="175" height="190"/>
    <rect x="20" y="392" width="180" height="190"/>
    <rect x="215" y="392" width="180" height="190"/>
    <rect x="410" y="392" width="180" height="190"/>
    <rect x="605" y="392" width="175" height="190"/>
  </g>
  <g fill="#777" font-size="11" text-anchor="middle">
    <text x="110" y="300">img / name / price</text>
    <text x="305" y="300">img / name / price</text>
    <text x="500" y="300">img / name / price</text>
    <text x="692" y="300">img / name / price</text>
    <text x="110" y="502">img / name / price</text>
    <text x="305" y="502">img / name / price</text>
    <text x="500" y="502">img / name / price</text>
    <text x="692" y="502">img / name / price</text>
  </g>
  <g fill="#b5651d">
    <rect x="55" y="345" width="110" height="26"/>
    <rect x="250" y="345" width="110" height="26"/>
    <rect x="445" y="345" width="110" height="26"/>
    <rect x="637" y="345" width="110" height="26"/>
    <rect x="55" y="547" width="110" height="26"/>
    <rect x="250" y="547" width="110" height="26"/>
    <rect x="445" y="547" width="110" height="26"/>
    <rect x="637" y="547" width="110" height="26"/>
  </g>
  <g fill="#fff" font-size="11" text-anchor="middle">
    <text x="110" y="362">Add to cart</text>
    <text x="305" y="362">Add to cart</text>
    <text x="500" y="362">Add to cart</text>
    <text x="692" y="362">Add to cart</text>
    <text x="110" y="564">Add to cart</text>
    <text x="305" y="564">Add to cart</text>
    <text x="500" y="564">Add to cart</text>
    <text x="692" y="564">Add to cart</text>
  </g>
</svg>
