<svg xmlns="http://www.w3.org/2000/svg" viewBox="0 0 800 620" font-family="Inter, Helvetica, sans-serif">
  <rect width="800" height="620" fill="#ffffff" stroke="#2f4b4e" stroke-width="2"/>
  <!-- header -->
  <rect x="20" y="20" width="760" height="60" fill="#2f4b4e"/>
  <text x="40" y="58" fill="#ffffff" font-size="22" font-weight="600">StitchCraft</text>
  <rect x="560" y="38" width="60" height="24" fill="#d8c3a5"/>
  <rect x="630" y="38" width="60" height="24" fill="#d8c3a5"/>
  <rect x="700" y="38" width="60" height="24" fill="#d8c3a5"/>
  <!-- hero -->
  <rect x="20" y="100" width="760" height="200" fill="#eee" stroke="#999"/>
  <text x="400" y="190" text-anchor="middle" fill="#555" font-size="18">HERO IMAGE — scrubs &amp; custom jackets</text>
  <text x="400" y="220" text-anchor="middle" fill="#555" font-size="14">Headline + "Shop Now" CTA button</text>
  <rect x="340" y="240" width="120" height="34" fill="#b5651d"/>
  <text x="400" y="263" text-anchor="middle" fill="#fff" font-size="13">Shop Now</text>
  <!-- featured product grid -->
  <text x="40" y="340" fill="#2f4b4e" font-size="16" font-weight="600">Featured Products (dynamic)</text>
  <rect x="20" y="360" width="180" height="180" fill="#f4f1ea" stroke="#999"/>
  <rect x="215" y="360" width="180" height="180" fill="#f4f1ea" stroke="#999"/>
  <rect x="410" y="360" width="180" height="180" fill="#f4f1ea" stroke="#999"/>
  <rect x="605" y="360" width="175" height="180" fill="#f4f1ea" stroke="#999"/>
  <text x="110" y="455" text-anchor="middle" fill="#777" font-size="12">card + price</text>
  <text x="305" y="455" text-anchor="middle" fill="#777" font-size="12">card + price</text>
  <text x="500" y="455" text-anchor="middle" fill="#777" font-size="12">card + price</text>
  <text x="692" y="455" text-anchor="middle" fill="#777" font-size="12">card + price</text>
  <!-- footer -->
  <rect x="20" y="560" width="760" height="40" fill="#2f4b4e"/>
  <text x="40" y="585" fill="#fff" font-size="13">Footer — contact, socials, copyright</text>
</svg>
